<svg version="1.1" xmlns="http://www.w3.org/2000/svg" viewBox="0 0 917.862629541748 242.17964812533967" width="1835.725259083496" height="484.35929625067934">
  <!-- svg-source:excalidraw -->
  
  <defs>
    <style class="style-fonts">
      @font-face {
        font-family: "Virgil";
        src: url("https://excalidraw.com/Virgil.woff2");
      }
      @font-face {
        font-family: "Cascadia";
        src: url("https://excalidraw.com/Cascadia.woff2");
      }
    </style>
    
  </defs>
  <rect x="0" y="0" width="917.862629541748" height="242.17964812533967" fill="#ffffff"></rect><g stroke-linecap="round" transform="translate(191.39320799850833 57.65756563495472) rotate(0 113.5 36.5)"><path d="M18.25 0 C93.7 1.79, 169.75 -0.02, 208.75 0 M18.25 0 C91.34 0.34, 162.54 0.37, 208.75 0 M208.75 0 C220.2 1.5, 226.24 6.2, 227 18.25 M208.75 0 C221.97 1.51, 224.72 8.27, 227 18.25 M227 18.25 C228.88 25.35, 225.7 35.28, 227 54.75 M227 18.25 C227.05 27.17, 227.21 38, 227 54.75 M227 54.75 C228.62 66.84, 222.34 72.49, 208.75 73 M227 54.75 C226.49 69.21, 221.08 74, 208.75 73 M208.75 73 C152.91 72.6, 99.09 73.26, 18.25 73 M208.75 73 C158.84 72.53, 110.62 72.13, 18.25 73 M18.25 73 C5.78 71.82, 1.47 68.51, 0 54.75 M18.25 73 C7.09 72.2, 1.5 64.8, 0 54.75 M0 54.75 C1.12 47.35, 1.13 36.04, 0 18.25 M0 54.75 C0.08 44.77, -0.56 33.36, 0 18.25 M0 18.25 C0.53 7.19, 5.1 1.48, 18.25 0 M0 18.25 C0.14 6.61, 7.57 -0.89, 18.25 0" stroke="#1e1e1e" stroke-width="2" fill="none"></path></g><g transform="translate(271.6832089140357 81.65756563495472) rotate(0 33.209999084472656 12.5)"><text x="33.209999084472656" y="0" font-family="Virgil, Segoe UI Emoji" font-size="20px" fill="#1e1e1e" text-anchor="middle" style="white-space: pre;" direction="ltr" dominant-baseline="text-before-edge">Velista</text></g><g stroke-linecap="round" transform="translate(468.9229263077788 10) rotate(0 87.89261732117245 85)"><path d="M110 21.5 C123.72 34.27, 135.09 46.46, 153.79 64.5 M110 21.5 C126.54 37.63, 142.95 54.52, 153.79 64.5 M153.79 64.5 C174.21 86.45, 175.87 87.42, 153.79 107.5 M153.79 64.5 C173.74 86.01, 175.47 86.64, 153.79 107.5 M153.79 107.5 C140.49 119.2, 129.3 132.03, 110 148.5 M153.79 107.5 C143.41 117.07, 131.68 128.19, 110 148.5 M110 148.5 C87.33 170.04, 88.68 168.34, 66 148.5 M110 148.5 C87.52 171.22, 85.76 169.37, 66 148.5 M66 148.5 C56.45 139.61, 43.48 131.1, 22 107.5 M66 148.5 C51.15 134.22, 37.1 120.85, 22 107.5 M22 107.5 C1.9 85.47, -1.88 87.27, 22 64.5 M22 107.5 C1.44 87.53, -0.87 86.03, 22 64.5 M22 64.5 C33.38 53.82, 44.97 42.73, 66 21.5 M22 64.5 C35.97 52.05, 47.79 39.35, 66 21.5 M66 21.5 C88.92 -0.47, 87.02 -1.09, 110 21.5 M66 21.5 C86.43 -0.54, 86.19 -1.09, 110 21.5" stroke="#1e1e1e" stroke-width="2" fill="none"></path></g><g transform="translate(519.6392354261288 82.5) rotate(0 37.22999954223633 12.5)"><text x="37.22999954223633" y="0" font-family="Virgil, Segoe UI Emoji" font-size="20px" fill="#1e1e1e" text-anchor="middle" style="white-space: pre;" direction="ltr" dominant-baseline="text-before-edge">prenota</text></g><g stroke-linecap="round"><g transform="translate(473.8752916620013 95.72859361433257) rotate(0 -26.773408814502318 0.12402362022427837)"><path d="M-0.09 -0.06 C-9.04 0, -44.67 0.37, -53.64 0.47 M0.14 -0.22 C-8.83 -0.2, -44.73 0.16, -53.68 0.24" stroke="#1e1e1e" stroke-width="2" fill="none"></path></g></g><mask></mask><g stroke-linecap="round" transform="translate(680.8626295417478 57.9746106159979) rotate(0 113.50000000000006 36.5)"><path d="M18.25 0 C89.1 1.93, 159.32 -0.34, 208.75 0 M18.25 0 C74.61 -1.24, 132.25 -2.05, 208.75 0 M208.75 0 C222.83 -0.05, 225.51 6.67, 227 18.25 M208.75 0 C219.69 0.3, 224.74 7.44, 227 18.25 M227 18.25 C227.55 29.57, 225.35 42.85, 227 54.75 M227 18.25 C228.07 30.38, 226.16 43, 227 54.75 M227 54.75 C227 65.52, 222.92 73.19, 208.75 73 M227 54.75 C226.47 64.62, 222.15 70.81, 208.75 73 M208.75 73 C134.13 73.65, 62.56 71.69, 18.25 73 M208.75 73 C158.65 74.21, 108.56 74.28, 18.25 73 M18.25 73 C6.58 71.15, 1.95 65.15, 0 54.75 M18.25 73 C7.55 73.29, 0.82 68.02, 0 54.75 M0 54.75 C1.03 44.62, -1.14 33.84, 0 18.25 M0 54.75 C0.47 41.83, 0.67 28.18, 0 18.25 M0 18.25 C0.92 7.24, 7.08 -0.13, 18.25 0 M0 18.25 C-0.06 5.75, 6.1 1.06, 18.25 0" stroke="#1e1e1e" stroke-width="2" fill="none"></path></g><g transform="translate(764.4326273292236 81.9746106159979) rotate(0 29.930002212524414 12.5)"><text x="29.930002212524414" y="0" font-family="Virgil, Segoe UI Emoji" font-size="20px" fill="#1e1e1e" text-anchor="middle" style="white-space: pre;" direction="ltr" dominant-baseline="text-before-edge">Barca</text></g><g stroke-linecap="round"><g transform="translate(681.2844159669005 97.52182127248705) rotate(0 -20.605142844572356 -0.19538633717340304)"><path d="M-0.08 0 C-6.99 -0.03, -34.49 -0.15, -41.36 -0.19 M0.15 -0.13 C-6.72 -0.19, -34.16 -0.32, -41.09 -0.39" stroke="#1e1e1e" stroke-width="2" fill="none"></path></g></g><mask></mask><g transform="translate(424.9467435125105 66.54598990453798) rotate(0 2.7100000381469727 12.5)"><text x="0" y="0" font-family="Virgil, Segoe UI Emoji" font-size="20px" fill="#1e1e1e" text-anchor="start" style="white-space: pre;" direction="ltr" dominant-baseline="text-before-edge">1</text></g><g transform="translate(660.8438434503776 66.54598990453792) rotate(0 6.440000057220459 12.5)"><text x="0" y="0" font-family="Virgil, Segoe UI Emoji" font-size="20px" fill="#1e1e1e" text-anchor="start" style="white-space: pre;" direction="ltr" dominant-baseline="text-before-edge">N</text></g><g stroke-linecap="round"><g transform="translate(306.1754718691705 131.18679691384892) rotate(0 0.009409680767589634 9.812775818057872)"><path d="M-0.1 -0.08 C-0.07 3.2, 0.06 16.31, 0.12 19.6 M0.11 0.19 C0.14 3.5, 0 16.45, 0.01 19.71" stroke="#1e1e1e" stroke-width="2" fill="none"></path></g></g><mask></mask><g stroke-linecap="round" transform="translate(302.30384981807396 151.31877746847715) rotate(0 4.02900785196158 4.364758506291764)"><path d="M4.12 0.07 C4.95 0.03, 6.16 0.39, 6.82 0.99 C7.48 1.6, 7.96 2.78, 8.08 3.71 C8.19 4.65, 7.98 5.81, 7.5 6.6 C7.02 7.4, 6.05 8.19, 5.2 8.48 C4.35 8.77, 3.22 8.7, 2.42 8.37 C1.62 8.04, 0.82 7.32, 0.41 6.51 C0.01 5.7, -0.22 4.4, -0.02 3.49 C0.18 2.57, 0.95 1.58, 1.62 1.02 C2.29 0.46, 3.58 0.28, 4 0.14 C4.43 0.01, 4.17 0.21, 4.17 0.23 M3.82 -0.12 C4.68 -0.17, 5.83 0.4, 6.51 1.01 C7.2 1.61, 7.73 2.61, 7.93 3.51 C8.13 4.41, 8.13 5.55, 7.73 6.38 C7.32 7.21, 6.28 8.14, 5.49 8.49 C4.7 8.83, 3.81 8.7, 2.99 8.45 C2.16 8.2, 1.01 7.76, 0.54 6.99 C0.07 6.21, 0.02 4.8, 0.16 3.81 C0.3 2.81, 0.76 1.68, 1.39 1.02 C2.02 0.35, 3.58 -0.03, 3.95 -0.19 C4.32 -0.35, 3.66 -0.07, 3.61 0.06" stroke="#1e1e1e" stroke-width="2" fill="none"></path></g><g transform="translate(284.8448157929068 156.89335853229863) rotate(0 22.010000228881836 12.5)"><text x="0" y="0" font-family="Virgil, Segoe UI Emoji" font-size="20px" fill="#1e1e1e" text-anchor="start" style="white-space: pre;" direction="ltr" dominant-baseline="text-before-edge">nome</text></g><g stroke-linecap="round"><g transform="translate(402.64686763746323 131.64884546407387) rotate(0 0.05347142751099909 9.831954552100086)"><path d="M0.04 -0.01 C0.08 3.3, 0.2 16.54, 0.23 19.8 M-0.12 -0.14 C-0.09 3.12, 0.13 16.28, 0.17 19.58" stroke="#1e1e1e" stroke-width="2" fill="none"></path></g></g><mask></mask><g stroke-linecap="round" transform="translate(398.7752455863668 151.78082601870204) rotate(0 4.02900785196158 4.364758506291764)"><path d="M4.01 0.03 C4.87 -0.01, 6.01 0.54, 6.68 1.1 C7.34 1.66, 7.82 2.51, 7.99 3.39 C8.15 4.28, 8.07 5.58, 7.65 6.41 C7.24 7.24, 6.34 8.03, 5.52 8.37 C4.69 8.72, 3.51 8.75, 2.72 8.46 C1.92 8.18, 1.17 7.45, 0.74 6.66 C0.31 5.88, 0.02 4.69, 0.14 3.74 C0.26 2.78, 0.85 1.57, 1.48 0.93 C2.12 0.3, 3.53 0.05, 3.96 -0.08 C4.4 -0.21, 4.09 0.05, 4.09 0.15 M4.13 -0.16 C4.97 -0.19, 5.93 0.59, 6.6 1.19 C7.27 1.79, 7.99 2.56, 8.17 3.42 C8.35 4.29, 8.12 5.56, 7.68 6.38 C7.23 7.2, 6.34 7.98, 5.52 8.35 C4.69 8.71, 3.57 8.89, 2.71 8.58 C1.86 8.27, 0.79 7.32, 0.38 6.48 C-0.03 5.64, 0.11 4.43, 0.24 3.54 C0.37 2.65, 0.53 1.74, 1.19 1.13 C1.84 0.52, 3.69 0.01, 4.16 -0.14 C4.62 -0.28, 4.02 0.15, 3.96 0.24" stroke="none" stroke-width="0" fill="#1e1e1e"></path><path d="M4.17 -0.03 C5 -0.02, 5.96 0.64, 6.62 1.28 C7.28 1.92, 7.98 2.93, 8.14 3.82 C8.3 4.71, 8.05 5.8, 7.58 6.61 C7.1 7.41, 6.1 8.38, 5.27 8.66 C4.43 8.94, 3.36 8.7, 2.56 8.3 C1.77 7.9, 0.9 7.09, 0.51 6.26 C0.11 5.43, 0.03 4.2, 0.19 3.31 C0.35 2.42, 0.8 1.49, 1.46 0.92 C2.12 0.35, 3.68 0.02, 4.15 -0.11 C4.62 -0.24, 4.28 0.05, 4.29 0.14 M4.1 0.03 C4.95 -0.01, 6.1 0.62, 6.75 1.23 C7.4 1.85, 7.92 2.81, 8.02 3.72 C8.12 4.63, 7.83 5.92, 7.35 6.7 C6.87 7.48, 5.89 8.07, 5.13 8.4 C4.37 8.72, 3.52 8.95, 2.79 8.64 C2.05 8.32, 1.21 7.41, 0.73 6.53 C0.24 5.64, -0.27 4.2, -0.12 3.31 C0.02 2.42, 0.93 1.71, 1.6 1.19 C2.27 0.66, 3.51 0.34, 3.89 0.17 C4.28 0, 3.85 0.11, 3.91 0.16" stroke="#1e1e1e" stroke-width="2" fill="none"></path></g><g transform="translate(395.75348969739554 159.50309106829508) rotate(0 7.880000114440918 12.5)"><text x="0" y="0" font-family="Virgil, Segoe UI Emoji" font-size="20px" fill="#1e1e1e" text-anchor="start" style="white-space: pre;" direction="ltr" dominant-baseline="text-before-edge">id</text></g><g stroke-linecap="round"><g transform="translate(205.36762774111276 131.65775153281368) rotate(0 -0.04132765437273633 9.9113701861057)"><path d="M-0.02 0.09 C0.01 3.41, 0.09 16.52, 0.13 19.82 M-0.21 0 C-0.19 3.3, -0.03 16.33, 0.02 19.6" stroke="#1e1e1e" stroke-width="2" fill="none"></path></g></g><mask></mask><g stroke-linecap="round" transform="translate(201.4960056900161 151.78973208744196) rotate(0 4.02900785196158 4.364758506291764)"><path d="M4.11 0.06 C4.9 0.03, 6.11 0.46, 6.74 1.09 C7.37 1.72, 7.75 2.85, 7.89 3.81 C8.03 4.77, 8.01 6.05, 7.58 6.85 C7.15 7.65, 6.19 8.37, 5.31 8.62 C4.44 8.87, 3.13 8.75, 2.33 8.38 C1.53 8.01, 0.91 7.23, 0.52 6.39 C0.12 5.56, -0.26 4.26, -0.05 3.37 C0.15 2.47, 1.03 1.59, 1.74 1.03 C2.45 0.47, 3.8 0.14, 4.19 0 C4.58 -0.14, 4.12 0.13, 4.11 0.18 M4.23 0.18 C5.05 0.15, 6.26 0.63, 6.88 1.21 C7.5 1.79, 7.87 2.75, 7.96 3.65 C8.05 4.54, 7.86 5.78, 7.41 6.57 C6.96 7.35, 6.05 8.05, 5.25 8.34 C4.45 8.64, 3.41 8.65, 2.59 8.35 C1.77 8.04, 0.74 7.33, 0.34 6.5 C-0.07 5.67, -0.09 4.32, 0.14 3.38 C0.37 2.43, 1.02 1.39, 1.7 0.83 C2.39 0.28, 3.88 0.17, 4.24 0.03 C4.6 -0.1, 3.86 -0.1, 3.87 0.01" stroke="#1e1e1e" stroke-width="2" fill="none"></path></g><g transform="translate(158.9418661539571 158.10240448981915) rotate(0 50.31999969482419 12.5)"><text x="0" y="0" font-family="Virgil, Segoe UI Emoji" font-size="20px" fill="#1e1e1e" text-anchor="start" style="white-space: pre;" direction="ltr" dominant-baseline="text-before-edge">esperienza</text></g><g stroke-linecap="round"><g transform="translate(700.2666483639887 132.52941123116472) rotate(0 0.06567610998081364 9.841823954901571)"><path d="M0.07 0.01 C0.11 3.3, 0.21 16.49, 0.21 19.79 M-0.08 -0.11 C-0.04 3.14, 0.14 16.28, 0.14 19.56" stroke="#1e1e1e" stroke-width="2" fill="none"></path></g></g><mask></mask><g stroke-linecap="round" transform="translate(696.395026312892 152.66139178579294) rotate(0 4.02900785196158 4.364758506291764)"><path d="M4.08 0.16 C4.9 0.09, 5.97 0.39, 6.63 0.96 C7.29 1.53, 7.89 2.65, 8.05 3.57 C8.2 4.49, 8 5.67, 7.56 6.47 C7.11 7.27, 6.18 8.01, 5.38 8.37 C4.58 8.73, 3.55 8.9, 2.75 8.63 C1.94 8.35, 0.98 7.55, 0.55 6.73 C0.11 5.92, 0 4.65, 0.12 3.73 C0.25 2.82, 0.65 1.83, 1.28 1.23 C1.91 0.64, 3.44 0.36, 3.89 0.16 C4.33 -0.04, 3.94 -0.01, 3.96 0.05 M4.15 0.21 C5 0.15, 6.12 0.57, 6.79 1.1 C7.47 1.63, 8.04 2.5, 8.19 3.39 C8.34 4.29, 8.12 5.67, 7.69 6.49 C7.26 7.31, 6.43 7.98, 5.59 8.34 C4.75 8.69, 3.46 8.94, 2.65 8.63 C1.83 8.33, 1.1 7.35, 0.69 6.49 C0.29 5.63, 0.09 4.41, 0.21 3.47 C0.32 2.54, 0.81 1.51, 1.4 0.9 C1.99 0.29, 3.36 -0.06, 3.75 -0.18 C4.14 -0.3, 3.68 0.04, 3.75 0.17" stroke="#1e1e1e" stroke-width="2" fill="none"></path></g><g transform="translate(672.2931702407243 164.87879489661532) rotate(0 28.499998092651367 12.5)"><text x="0" y="0" font-family="Virgil, Segoe UI Emoji" font-size="20px" fill="#1e1e1e" text-anchor="start" style="white-space: pre;" direction="ltr" dominant-baseline="text-before-edge">colore</text></g><g stroke-linecap="round"><g transform="translate(883.8328220818482 132.25336844283396) rotate(0 0.09669657174367785 9.931755901327563)"><path d="M-0.06 0.12 C-0.01 3.41, 0.23 16.53, 0.25 19.8 M0.18 0.06 C0.22 3.3, 0.24 16.33, 0.21 19.58" stroke="#1e1e1e" stroke-width="2" fill="none"></path></g></g><mask></mask><g stroke-linecap="round" transform="translate(879.9612000307518 152.38534899746207) rotate(0 4.029007851961637 4.364758506291764)"><path d="M4.13 0.09 C4.98 0.07, 6.11 0.48, 6.77 1.11 C7.44 1.73, 8 2.89, 8.11 3.84 C8.22 4.79, 7.9 6.04, 7.43 6.79 C6.96 7.55, 6.12 8.07, 5.3 8.36 C4.48 8.65, 3.33 8.85, 2.51 8.52 C1.68 8.19, 0.74 7.22, 0.33 6.38 C-0.07 5.53, -0.15 4.4, 0.06 3.47 C0.28 2.53, 0.93 1.33, 1.64 0.78 C2.35 0.23, 3.91 0.26, 4.34 0.15 C4.78 0.04, 4.28 0.05, 4.26 0.12 M4.2 -0.1 C4.98 -0.12, 6.1 0.36, 6.75 1.05 C7.41 1.74, 8.02 3.07, 8.15 4.02 C8.27 4.98, 7.98 6.01, 7.5 6.78 C7.03 7.56, 6.16 8.43, 5.28 8.69 C4.4 8.94, 3.03 8.69, 2.24 8.33 C1.46 7.98, 0.95 7.34, 0.57 6.53 C0.18 5.72, -0.24 4.42, -0.08 3.48 C0.08 2.53, 0.8 1.45, 1.53 0.85 C2.26 0.25, 3.85 -0.03, 4.3 -0.13 C4.74 -0.24, 4.2 0.16, 4.21 0.23" stroke="none" stroke-width="0" fill="#1e1e1e"></path><path d="M4.01 0 C4.8 -0.08, 5.84 0.33, 6.5 0.95 C7.17 1.57, 7.85 2.77, 8.01 3.72 C8.18 4.67, 7.91 5.84, 7.49 6.64 C7.07 7.44, 6.32 8.17, 5.5 8.5 C4.68 8.83, 3.41 8.92, 2.57 8.63 C1.73 8.33, 0.88 7.56, 0.46 6.72 C0.03 5.88, -0.16 4.52, 0.01 3.59 C0.17 2.65, 0.77 1.69, 1.44 1.1 C2.11 0.5, 3.58 0.17, 4.02 0.02 C4.47 -0.13, 4.09 0.1, 4.12 0.2 M4.32 -0.02 C5.14 -0.03, 6.26 0.35, 6.87 1.01 C7.48 1.66, 7.86 2.98, 7.98 3.91 C8.09 4.84, 8 5.85, 7.58 6.59 C7.15 7.33, 6.27 8.06, 5.42 8.34 C4.58 8.62, 3.38 8.61, 2.51 8.26 C1.65 7.91, 0.67 7.02, 0.23 6.23 C-0.22 5.44, -0.4 4.39, -0.15 3.53 C0.1 2.68, 0.98 1.69, 1.72 1.09 C2.46 0.49, 3.92 0.07, 4.3 -0.08 C4.68 -0.23, 4 0.09, 3.98 0.19" stroke="#1e1e1e" stroke-width="2" fill="none"></path></g><g transform="translate(876.9394441417805 160.1076140470551) rotate(0 7.880000114440918 12.5)"><text x="0" y="0" font-family="Virgil, Segoe UI Emoji" font-size="20px" fill="#1e1e1e" text-anchor="start" style="white-space: pre;" direction="ltr" dominant-baseline="text-before-edge">id</text></g><g stroke-linecap="round"><g transform="translate(795.053008953178 133.73845718868517) rotate(0 -0.003125658792896502 9.828355298912982)"><path d="M0.04 0 C0.06 3.26, 0.1 16.35, 0.11 19.65 M-0.11 -0.13 C-0.11 3.15, -0.02 16.44, -0.01 19.78" stroke="#1e1e1e" stroke-width="2" fill="none"></path></g></g><mask></mask><g stroke-linecap="round" transform="translate(791.1813869020816 153.8704377433133) rotate(0 4.029007851961524 4.364758506291764)"><path d="M3.87 0.11 C4.7 0.01, 5.93 0.39, 6.6 0.98 C7.27 1.56, 7.73 2.7, 7.88 3.63 C8.02 4.56, 7.89 5.8, 7.49 6.59 C7.09 7.38, 6.26 8.05, 5.47 8.38 C4.69 8.71, 3.6 8.86, 2.78 8.57 C1.97 8.29, 1.03 7.47, 0.58 6.68 C0.13 5.89, -0.07 4.75, 0.08 3.85 C0.23 2.94, 0.83 1.87, 1.49 1.25 C2.14 0.63, 3.61 0.31, 4 0.13 C4.39 -0.04, 3.85 0.12, 3.84 0.19 M4.01 -0.09 C4.86 -0.23, 5.99 0.18, 6.65 0.74 C7.31 1.3, 7.85 2.38, 7.96 3.29 C8.08 4.21, 7.79 5.35, 7.35 6.22 C6.91 7.09, 6.04 8.07, 5.31 8.48 C4.58 8.9, 3.73 9, 2.97 8.69 C2.2 8.38, 1.27 7.41, 0.75 6.61 C0.23 5.81, -0.25 4.77, -0.15 3.87 C-0.05 2.97, 0.7 1.87, 1.37 1.22 C2.04 0.58, 3.42 0.23, 3.85 0 C4.29 -0.22, 3.99 -0.18, 3.99 -0.12" stroke="#1e1e1e" stroke-width="2" fill="none"></path></g><g transform="translate(774.46044421547 161.65929282280177) rotate(0 22.010000228881836 12.5)"><text x="0" y="0" font-family="Virgil, Segoe UI Emoji" font-size="20px" fill="#1e1e1e" text-anchor="start" style="white-space: pre;" direction="ltr" dominant-baseline="text-before-edge">nome</text></g><g stroke-linecap="round"><g transform="translate(179.45724008519596 76.66290348507187) rotate(90.3742999905746 0.06848680274845265 9.949222740551932)"><path d="M-0.08 0.14 C-0.07 3.45, -0.08 16.55, -0.04 19.81 M0.14 0.09 C0.2 3.36, 0.22 16.3, 0.22 19.59" stroke="#1e1e1e" stroke-width="2" fill="none"></path></g></g><mask></mask><g stroke-linecap="round" transform="translate(160.94893238470382 82.24122995861995) rotate(90.3742999905746 4.02900785196158 4.364758506291764)"><path d="M4.02 -0.11 C4.83 -0.14, 5.98 0.35, 6.67 0.97 C7.36 1.6, 8.02 2.7, 8.13 3.63 C8.24 4.56, 7.81 5.73, 7.33 6.54 C6.84 7.35, 6.04 8.21, 5.22 8.5 C4.4 8.78, 3.2 8.62, 2.41 8.27 C1.62 7.92, 0.86 7.21, 0.48 6.41 C0.09 5.61, -0.06 4.38, 0.1 3.47 C0.26 2.57, 0.71 1.56, 1.41 0.99 C2.11 0.41, 3.8 0.18, 4.28 0.02 C4.75 -0.14, 4.29 -0.02, 4.24 0.03 M3.93 0.21 C4.76 0.12, 6.01 0.46, 6.65 0.97 C7.3 1.48, 7.64 2.39, 7.82 3.29 C8.01 4.18, 8.12 5.47, 7.75 6.32 C7.37 7.17, 6.41 8.01, 5.58 8.4 C4.76 8.79, 3.62 8.94, 2.78 8.68 C1.93 8.42, 0.94 7.68, 0.5 6.86 C0.06 6.03, 0.01 4.69, 0.13 3.71 C0.24 2.73, 0.58 1.56, 1.17 0.98 C1.76 0.4, 3.24 0.34, 3.66 0.23 C4.09 0.11, 3.72 0.23, 3.74 0.29" stroke="#1e1e1e" stroke-width="2" fill="none"></path></g><g transform="translate(10 72.80919676047313) rotate(0 69.23999786376953 12.5)"><text x="69.23999786376953" y="0" font-family="Virgil, Segoe UI Emoji" font-size="20px" fill="#1e1e1e" text-anchor="middle" style="white-space: pre;" direction="ltr" dominant-baseline="text-before-edge">data_nascita</text></g><g stroke-linecap="round"><g transform="translate(556.3918268718478 176.37303716689576) rotate(0 -0.011686047886485085 9.897966081839854)"><path d="M-0.12 0.09 C-0.12 3.36, 0.07 16.36, 0.1 19.64 M0.09 0.01 C0.06 3.29, 0 16.53, -0.02 19.78" stroke="#1e1e1e" stroke-width="2" fill="none"></path></g></g><mask></mask><g stroke-linecap="round" transform="translate(552.5202048207514 196.50501772152393) rotate(0 4.02900785196158 4.364758506291764)"><path d="M3.77 0.04 C4.57 -0.06, 5.75 0.35, 6.47 0.91 C7.2 1.47, 7.91 2.47, 8.11 3.4 C8.32 4.34, 8.14 5.7, 7.7 6.52 C7.26 7.34, 6.29 7.95, 5.49 8.31 C4.69 8.66, 3.71 8.94, 2.91 8.66 C2.1 8.38, 1.12 7.42, 0.64 6.6 C0.15 5.78, -0.12 4.67, 0.01 3.75 C0.13 2.83, 0.7 1.68, 1.38 1.08 C2.06 0.48, 3.61 0.31, 4.07 0.13 C4.52 -0.04, 4.13 -0.05, 4.11 0.03 M3.83 -0.03 C4.65 -0.1, 5.83 0.37, 6.52 0.95 C7.2 1.53, 7.74 2.52, 7.95 3.44 C8.15 4.36, 8.19 5.63, 7.76 6.5 C7.33 7.36, 6.17 8.3, 5.37 8.64 C4.56 8.98, 3.68 8.86, 2.91 8.52 C2.14 8.18, 1.25 7.39, 0.76 6.6 C0.26 5.8, -0.19 4.65, -0.07 3.73 C0.05 2.8, 0.8 1.7, 1.48 1.05 C2.15 0.39, 3.64 -0.06, 4 -0.18 C4.36 -0.3, 3.69 0.24, 3.63 0.32" stroke="#1e1e1e" stroke-width="2" fill="none"></path></g><g transform="translate(534.7366221606671 207.17964812533967) rotate(0 24.68000030517578 12.5)"><text x="0" y="0" font-family="Virgil, Segoe UI Emoji" font-size="20px" fill="#1e1e1e" text-anchor="start" style="white-space: pre;" direction="ltr" dominant-baseline="text-before-edge">data</text></g></svg>