<svg version="1.1" xmlns="http://www.w3.org/2000/svg" viewBox="0 0 876.3845378303076 374.89881768686155" width="1752.7690756606153" height="749.7976353737231">
  <!-- svg-source:excalidraw -->
  
  <defs>
    <style class="style-fonts">
      @font-face {
        font-family: "Virgil";
        src: url("https://excalidraw.com/Virgil.woff2");
      }
      @font-face {
        font-family: "Cascadia";
        src: url("https://excalidraw.com/Cascadia.woff2");
      }
    </style>
    
  </defs>
  <rect x="0" y="0" width="876.3845378303076" height="374.89881768686155" fill="#ffffff"></rect><g stroke-linecap="round" transform="translate(10 11.157811305948826) rotate(0 113.5 36.5)"><path d="M18.25 0 C93.7 1.79, 169.75 -0.02, 208.75 0 M18.25 0 C91.34 0.34, 162.54 0.37, 208.75 0 M208.75 0 C220.2 1.5, 226.24 6.2, 227 18.25 M208.75 0 C221.97 1.51, 224.72 8.27, 227 18.25 M227 18.25 C228.88 25.35, 225.7 35.28, 227 54.75 M227 18.25 C227.05 27.17, 227.21 38, 227 54.75 M227 54.75 C228.62 66.84, 222.34 72.49, 208.75 73 M227 54.75 C226.49 69.21, 221.08 74, 208.75 73 M208.75 73 C152.91 72.6, 99.09 73.26, 18.25 73 M208.75 73 C158.84 72.53, 110.62 72.13, 18.25 73 M18.25 73 C5.78 71.82, 1.47 68.51, 0 54.75 M18.25 73 C7.09 72.2, 1.5 64.8, 0 54.75 M0 54.75 C1.12 47.35, 1.13 36.04, 0 18.25 M0 54.75 C0.08 44.77, -0.56 33.36, 0 18.25 M0 18.25 C0.53 7.19, 5.1 1.48, 18.25 0 M0 18.25 C0.14 6.61, 7.57 -0.89, 18.25 0" stroke="#1e1e1e" stroke-width="2" fill="none"></path></g><g transform="translate(75.56000518798828 35.157811305948826) rotate(0 47.93999481201172 12.5)"><text x="47.93999481201172" y="0" font-family="Virgil, Segoe UI Emoji" font-size="20px" fill="#1e1e1e" text-anchor="middle" style="white-space: pre;" direction="ltr" dominant-baseline="text-before-edge">Categoria</text></g><g stroke-linecap="round" transform="translate(325.9104679141642 10) rotate(0 42.5 37)"><path d="M53.75 9.5 C60.71 15.3, 65.33 20.52, 74.25 28.5 M53.75 9.5 C61.35 16.59, 68.94 24.38, 74.25 28.5 M74.25 28.5 C83.43 38.45, 85.08 39.42, 74.25 47.5 M74.25 28.5 C82.95 38.01, 84.68 38.64, 74.25 47.5 M74.25 47.5 C67.3 52.7, 62.61 58.82, 53.75 64.5 M74.25 47.5 C69.93 50.97, 64.11 56.01, 53.75 64.5 M53.75 64.5 C42.33 74.04, 43.68 72.34, 32.25 64.5 M53.75 64.5 C42.52 75.22, 40.76 73.37, 32.25 64.5 M32.25 64.5 C28.06 61.19, 20.28 58.22, 10.75 47.5 M32.25 64.5 C24.85 58.19, 18.21 52.73, 10.75 47.5 M10.75 47.5 C1.9 37.47, -1.88 39.27, 10.75 28.5 M10.75 47.5 C1.44 39.53, -0.87 38.03, 10.75 28.5 M10.75 28.5 C16.39 23.75, 22.38 18.64, 32.25 9.5 M10.75 28.5 C17.99 23.04, 23.27 17.31, 32.25 9.5 M32.25 9.5 C43.92 -0.47, 42.02 -1.09, 53.75 9.5 M32.25 9.5 C41.43 -0.54, 41.19 -1.09, 53.75 9.5" stroke="#1e1e1e" stroke-width="2" fill="none"></path></g><g transform="translate(357.05046730381264 34.5) rotate(0 11.610000610351562 12.5)"><text x="11.610000610351562" y="0" font-family="Virgil, Segoe UI Emoji" font-size="20px" fill="#1e1e1e" text-anchor="middle" style="white-space: pre;" direction="ltr" dominant-baseline="text-before-edge">ha</text></g><g stroke-linecap="round"><g transform="translate(327.9104679141642 47.752656608215375) rotate(0 -43.74950960128223 0.12402362022427837)"><path d="M-0.09 -0.06 C-14.7 0, -72.97 0.37, -87.59 0.47 M0.14 -0.22 C-14.49 -0.2, -73.03 0.16, -87.64 0.24" stroke="#1e1e1e" stroke-width="2" fill="none"></path></g></g><mask></mask><g stroke-linecap="round" transform="translate(499.4694215432395 11.474856286992008) rotate(0 113.50000000000006 36.5)"><path d="M18.25 0 C89.1 1.93, 159.32 -0.34, 208.75 0 M18.25 0 C74.61 -1.24, 132.25 -2.05, 208.75 0 M208.75 0 C222.83 -0.05, 225.51 6.67, 227 18.25 M208.75 0 C219.69 0.3, 224.74 7.44, 227 18.25 M227 18.25 C227.55 29.57, 225.35 42.85, 227 54.75 M227 18.25 C228.07 30.38, 226.16 43, 227 54.75 M227 54.75 C227 65.52, 222.92 73.19, 208.75 73 M227 54.75 C226.47 64.62, 222.15 70.81, 208.75 73 M208.75 73 C134.13 73.65, 62.56 71.69, 18.25 73 M208.75 73 C158.65 74.21, 108.56 74.28, 18.25 73 M18.25 73 C6.58 71.15, 1.95 65.15, 0 54.75 M18.25 73 C7.55 73.29, 0.82 68.02, 0 54.75 M0 54.75 C1.03 44.62, -1.14 33.84, 0 18.25 M0 54.75 C0.47 41.83, 0.67 28.18, 0 18.25 M0 18.25 C0.92 7.24, 7.08 -0.13, 18.25 0 M0 18.25 C-0.06 5.75, 6.1 1.06, 18.25 0" stroke="#1e1e1e" stroke-width="2" fill="none"></path></g><g transform="translate(584.3894216195336 35.47485628699201) rotate(0 28.579999923706055 12.5)"><text x="28.579999923706055" y="0" font-family="Virgil, Segoe UI Emoji" font-size="20px" fill="#1e1e1e" text-anchor="middle" style="white-space: pre;" direction="ltr" dominant-baseline="text-before-edge">Spesa</text></g><g stroke-linecap="round"><g transform="translate(496.2007512756139 48.06970158925856) rotate(0 -43.855006086464414 0.20627265887227964)"><path d="M-0.08 0 C-14.74 0.1, -73.24 0.46, -87.86 0.54 M0.15 -0.13 C-14.47 -0.07, -72.91 0.29, -87.59 0.35" stroke="#1e1e1e" stroke-width="2" fill="none"></path></g></g><mask></mask><g transform="translate(243.5535355140022 20.04623557553208) rotate(0 2.7100000381469727 12.5)"><text x="0" y="0" font-family="Virgil, Segoe UI Emoji" font-size="20px" fill="#1e1e1e" text-anchor="start" style="white-space: pre;" direction="ltr" dominant-baseline="text-before-edge">1</text></g><g transform="translate(479.4506354518693 20.046235575532023) rotate(0 6.440000057220459 12.5)"><text x="0" y="0" font-family="Virgil, Segoe UI Emoji" font-size="20px" fill="#1e1e1e" text-anchor="start" style="white-space: pre;" direction="ltr" dominant-baseline="text-before-edge">N</text></g><g stroke-linecap="round" transform="translate(574.7063645787202 124.1450907243036) rotate(0 42.5 37)"><path d="M53.75 9.5 C59.78 14.92, 67.89 22.48, 74.25 28.5 M53.75 9.5 C57.27 13.13, 62.74 17.89, 74.25 28.5 M74.25 28.5 C86.07 37.99, 84.9 39.96, 74.25 47.5 M74.25 28.5 C86.99 36.6, 83.27 39.87, 74.25 47.5 M74.25 47.5 C68.24 52.08, 59.52 60.05, 53.75 64.5 M74.25 47.5 C69.59 52.53, 62.64 56.34, 53.75 64.5 M53.75 64.5 C44.72 75.57, 44.15 72.38, 32.25 64.5 M53.75 64.5 C43.01 74.12, 40.82 74.11, 32.25 64.5 M32.25 64.5 C29.61 62.52, 25.74 57.41, 10.75 47.5 M32.25 64.5 C25.25 59.3, 19.54 54.58, 10.75 47.5 M10.75 47.5 C-1.86 37.85, -0.53 38.41, 10.75 28.5 M10.75 47.5 C1.37 36.59, 2.05 38.73, 10.75 28.5 M10.75 28.5 C18.08 23.52, 25.34 13.78, 32.25 9.5 M10.75 28.5 C17.91 21.85, 26.42 15.28, 32.25 9.5 M32.25 9.5 C41.15 0.21, 44.26 -1.36, 53.75 9.5 M32.25 9.5 C42.09 0.7, 45.24 0.41, 53.75 9.5" stroke="#1e1e1e" stroke-width="2" fill="none"></path></g><g transform="translate(605.8463639683687 148.6450907243036) rotate(0 11.610000610351562 12.5)"><text x="11.610000610351562" y="0" font-family="Virgil, Segoe UI Emoji" font-size="20px" fill="#1e1e1e" text-anchor="middle" style="white-space: pre;" direction="ltr" dominant-baseline="text-before-edge">ha</text></g><g stroke-linecap="round"><g transform="translate(617.3098520226386 125.80575849348048) rotate(0 -0.19270163918565686 -19.79839521019275)"><path d="M0.05 -0.12 C-0.01 -6.75, -0.36 -33.13, -0.44 -39.74 M-0.1 0.14 C-0.11 -6.48, -0.16 -32.98, -0.17 -39.6" stroke="#1e1e1e" stroke-width="2" fill="none"></path></g></g><mask></mask><g stroke-linecap="round" transform="translate(505.2083308698957 237.843474807681) rotate(0 113.5 36.5)"><path d="M18.25 0 C80.68 -0.13, 144.74 1.82, 208.75 0 M18.25 0 C73.27 0.99, 129.26 -0.6, 208.75 0 M208.75 0 C219.41 1.62, 227.5 7.5, 227 18.25 M208.75 0 C222.83 0.6, 225.72 4.32, 227 18.25 M227 18.25 C225.61 33.46, 227.77 44.38, 227 54.75 M227 18.25 C227.89 26.52, 227.32 36.47, 227 54.75 M227 54.75 C225.1 67.01, 218.93 71.01, 208.75 73 M227 54.75 C227.49 68.65, 222.52 75.25, 208.75 73 M208.75 73 C156.31 70.07, 99.87 71.83, 18.25 73 M208.75 73 C145.81 73.06, 83.99 72.24, 18.25 73 M18.25 73 C7.87 73.63, 0.95 65.48, 0 54.75 M18.25 73 C7.14 72.67, 1.98 66.35, 0 54.75 M0 54.75 C-2.17 45.24, -0.09 38.24, 0 18.25 M0 54.75 C0.97 41.57, -0.06 30.05, 0 18.25 M0 18.25 C1.95 6.44, 7.21 1.58, 18.25 0 M0 18.25 C1.5 5.03, 7.63 -1.69, 18.25 0" stroke="#1e1e1e" stroke-width="2" fill="none"></path></g><g transform="translate(598.9883296491926 261.843474807681) rotate(0 19.720001220703125 12.5)"><text x="19.720001220703125" y="0" font-family="Virgil, Segoe UI Emoji" font-size="20px" fill="#1e1e1e" text-anchor="middle" style="white-space: pre;" direction="ltr" dominant-baseline="text-before-edge">Tag</text></g><g transform="translate(627.6943903249523 212.57861455962234) rotate(0 6.440000057220459 12.5)"><text x="0" y="0" font-family="Virgil, Segoe UI Emoji" font-size="20px" fill="#1e1e1e" text-anchor="start" style="white-space: pre;" direction="ltr" dominant-baseline="text-before-edge">N</text></g><g transform="translate(624.4820642041896 89.0763402510376) rotate(0 6.440000057220459 12.5)"><text x="0" y="0" font-family="Virgil, Segoe UI Emoji" font-size="20px" fill="#1e1e1e" text-anchor="start" style="white-space: pre;" direction="ltr" dominant-baseline="text-before-edge">N</text></g><g stroke-linecap="round"><g transform="translate(618.4453059311459 235.88283466216035) rotate(0 -0.12831375582254623 -19.87501141942647)"><path d="M-0.06 -0.01 C-0.12 -6.61, -0.38 -33.15, -0.43 -39.74 M0.18 -0.14 C0.17 -6.71, -0.05 -33, -0.16 -39.62" stroke="#1e1e1e" stroke-width="2" fill="none"></path></g></g><mask></mask><g stroke-linecap="round"><g transform="translate(53.18740403076413 84.68704258484303) rotate(0 0.009409680767589634 9.812775818057872)"><path d="M-0.1 -0.08 C-0.07 3.2, 0.06 16.31, 0.12 19.6 M0.11 0.19 C0.14 3.5, 0 16.45, 0.01 19.71" stroke="#1e1e1e" stroke-width="2" fill="none"></path></g></g><mask></mask><g stroke-linecap="round" transform="translate(49.31578197966758 104.81902313947126) rotate(0 4.02900785196158 4.364758506291764)"><path d="M4.12 0.07 C4.95 0.03, 6.16 0.39, 6.82 0.99 C7.48 1.6, 7.96 2.78, 8.08 3.71 C8.19 4.65, 7.98 5.81, 7.5 6.6 C7.02 7.4, 6.05 8.19, 5.2 8.48 C4.35 8.77, 3.22 8.7, 2.42 8.37 C1.62 8.04, 0.82 7.32, 0.41 6.51 C0.01 5.7, -0.22 4.4, -0.02 3.49 C0.18 2.57, 0.95 1.58, 1.62 1.02 C2.29 0.46, 3.58 0.28, 4 0.14 C4.43 0.01, 4.17 0.21, 4.17 0.23 M3.82 -0.12 C4.68 -0.17, 5.83 0.4, 6.51 1.01 C7.2 1.61, 7.73 2.61, 7.93 3.51 C8.13 4.41, 8.13 5.55, 7.73 6.38 C7.32 7.21, 6.28 8.14, 5.49 8.49 C4.7 8.83, 3.81 8.7, 2.99 8.45 C2.16 8.2, 1.01 7.76, 0.54 6.99 C0.07 6.21, 0.02 4.8, 0.16 3.81 C0.3 2.81, 0.76 1.68, 1.39 1.02 C2.02 0.35, 3.58 -0.03, 3.95 -0.19 C4.32 -0.35, 3.66 -0.07, 3.61 0.06" stroke="#1e1e1e" stroke-width="2" fill="none"></path></g><g transform="translate(31.856747954500634 111.86978688040404) rotate(0 22.010000228881836 12.5)"><text x="0" y="0" font-family="Virgil, Segoe UI Emoji" font-size="20px" fill="#1e1e1e" text-anchor="start" style="white-space: pre;" direction="ltr" dominant-baseline="text-before-edge">nome</text></g><g stroke-linecap="round"><g transform="translate(187.30145806539497 85.14909113506798) rotate(0 0.05347142751099909 9.831954552100086)"><path d="M0.04 -0.01 C0.08 3.3, 0.2 16.54, 0.23 19.8 M-0.12 -0.14 C-0.09 3.12, 0.13 16.28, 0.17 19.58" stroke="#1e1e1e" stroke-width="2" fill="none"></path></g></g><mask></mask><g stroke-linecap="round" transform="translate(183.42983601429853 105.28107168969615) rotate(0 4.02900785196158 4.364758506291764)"><path d="M4.01 0.03 C4.87 -0.01, 6.01 0.54, 6.68 1.1 C7.34 1.66, 7.82 2.51, 7.99 3.39 C8.15 4.28, 8.07 5.58, 7.65 6.41 C7.24 7.24, 6.34 8.03, 5.52 8.37 C4.69 8.72, 3.51 8.75, 2.72 8.46 C1.92 8.18, 1.17 7.45, 0.74 6.66 C0.31 5.88, 0.02 4.69, 0.14 3.74 C0.26 2.78, 0.85 1.57, 1.48 0.93 C2.12 0.3, 3.53 0.05, 3.96 -0.08 C4.4 -0.21, 4.09 0.05, 4.09 0.15 M4.13 -0.16 C4.97 -0.19, 5.93 0.59, 6.6 1.19 C7.27 1.79, 7.99 2.56, 8.17 3.42 C8.35 4.29, 8.12 5.56, 7.68 6.38 C7.23 7.2, 6.34 7.98, 5.52 8.35 C4.69 8.71, 3.57 8.89, 2.71 8.58 C1.86 8.27, 0.79 7.32, 0.38 6.48 C-0.03 5.64, 0.11 4.43, 0.24 3.54 C0.37 2.65, 0.53 1.74, 1.19 1.13 C1.84 0.52, 3.69 0.01, 4.16 -0.14 C4.62 -0.28, 4.02 0.15, 3.96 0.24" stroke="none" stroke-width="0" fill="#1e1e1e"></path><path d="M4.17 -0.03 C5 -0.02, 5.96 0.64, 6.62 1.28 C7.28 1.92, 7.98 2.93, 8.14 3.82 C8.3 4.71, 8.05 5.8, 7.58 6.61 C7.1 7.41, 6.1 8.38, 5.27 8.66 C4.43 8.94, 3.36 8.7, 2.56 8.3 C1.77 7.9, 0.9 7.09, 0.51 6.26 C0.11 5.43, 0.03 4.2, 0.19 3.31 C0.35 2.42, 0.8 1.49, 1.46 0.92 C2.12 0.35, 3.68 0.02, 4.15 -0.11 C4.62 -0.24, 4.28 0.05, 4.29 0.14 M4.1 0.03 C4.95 -0.01, 6.1 0.62, 6.75 1.23 C7.4 1.85, 7.92 2.81, 8.02 3.72 C8.12 4.63, 7.83 5.92, 7.35 6.7 C6.87 7.48, 5.89 8.07, 5.13 8.4 C4.37 8.72, 3.52 8.95, 2.79 8.64 C2.05 8.32, 1.21 7.41, 0.73 6.53 C0.24 5.64, -0.27 4.2, -0.12 3.31 C0.02 2.42, 0.93 1.71, 1.6 1.19 C2.27 0.66, 3.51 0.34, 3.89 0.17 C4.28 0, 3.85 0.11, 3.91 0.16" stroke="#1e1e1e" stroke-width="2" fill="none"></path></g><g transform="translate(180.40808012532727 113.00333673928918) rotate(0 7.880000114440918 12.5)"><text x="0" y="0" font-family="Virgil, Segoe UI Emoji" font-size="20px" fill="#1e1e1e" text-anchor="start" style="white-space: pre;" direction="ltr" dominant-baseline="text-before-edge">id</text></g><g stroke-linecap="round"><g transform="translate(736.4657662290863 18.9896841257804) rotate(269.5901407058406 0.00639268716429342 9.932772413227013)"><path d="M-0.11 0.11 C-0.09 3.41, 0.1 16.58, 0.12 19.83 M0.1 0.03 C0.11 3.29, -0.02 16.35, 0.01 19.62" stroke="#1e1e1e" stroke-width="2" fill="none"></path></g></g><mask></mask><g stroke-linecap="round" transform="translate(747.0056649828077 24.302527876887666) rotate(269.5901407058406 4.029007851961637 4.364758506291764)"><path d="M3.87 0.03 C4.66 -0.04, 5.89 0.35, 6.59 0.93 C7.29 1.51, 7.91 2.6, 8.06 3.51 C8.2 4.43, 7.87 5.57, 7.46 6.4 C7.04 7.23, 6.36 8.15, 5.55 8.51 C4.75 8.88, 3.43 8.92, 2.61 8.59 C1.79 8.27, 1.04 7.38, 0.61 6.56 C0.18 5.74, -0.11 4.59, 0.02 3.68 C0.15 2.77, 0.69 1.71, 1.38 1.1 C2.06 0.5, 3.68 0.24, 4.14 0.06 C4.61 -0.12, 4.16 -0.02, 4.16 0.01 M3.74 0 C4.53 -0.13, 5.54 0.27, 6.23 0.83 C6.92 1.4, 7.63 2.44, 7.87 3.39 C8.11 4.33, 8.06 5.66, 7.67 6.5 C7.28 7.35, 6.29 8.12, 5.52 8.45 C4.75 8.79, 3.89 8.74, 3.05 8.5 C2.21 8.26, 1.01 7.76, 0.48 7 C-0.05 6.24, -0.28 4.93, -0.12 3.94 C0.05 2.96, 0.8 1.77, 1.47 1.09 C2.15 0.41, 3.57 0.03, 3.94 -0.13 C4.32 -0.3, 3.78 0.06, 3.73 0.12" stroke="none" stroke-width="0" fill="#1e1e1e"></path><path d="M3.87 -0.11 C4.73 -0.23, 5.9 0.21, 6.56 0.78 C7.22 1.34, 7.7 2.36, 7.85 3.29 C8.01 4.21, 7.89 5.52, 7.5 6.35 C7.1 7.17, 6.25 7.91, 5.48 8.26 C4.7 8.61, 3.63 8.67, 2.84 8.45 C2.04 8.22, 1.18 7.69, 0.71 6.91 C0.24 6.13, -0.1 4.74, 0 3.77 C0.09 2.8, 0.67 1.7, 1.29 1.09 C1.91 0.49, 3.34 0.32, 3.74 0.14 C4.14 -0.05, 3.67 -0.03, 3.7 0 M3.9 0.18 C4.67 0.11, 5.54 0.36, 6.24 0.93 C6.94 1.49, 7.87 2.72, 8.13 3.59 C8.38 4.47, 8.25 5.37, 7.79 6.19 C7.34 7.01, 6.22 8.15, 5.42 8.51 C4.61 8.87, 3.77 8.61, 2.98 8.35 C2.18 8.09, 1.14 7.74, 0.66 6.96 C0.17 6.17, -0.08 4.57, 0.06 3.62 C0.21 2.68, 0.88 1.9, 1.53 1.29 C2.17 0.69, 3.52 0.21, 3.95 0 C4.37 -0.21, 4.12 -0.09, 4.08 0.02" stroke="#1e1e1e" stroke-width="2" fill="none"></path></g><g transform="translate(762.6729014040895 15.495582095283964) rotate(0.16677326979035026 7.880000114440918 12.5)"><text x="0" y="0" font-family="Virgil, Segoe UI Emoji" font-size="20px" fill="#1e1e1e" text-anchor="start" style="white-space: pre;" direction="ltr" dominant-baseline="text-before-edge">id</text></g><g stroke-linecap="round"><g transform="translate(736.4688198815734 33.626485093134875) rotate(269.5901407058406 0.0006157175898806599 9.858676889686961)"><path d="M0 -0.06 C0.04 3.24, 0.14 16.43, 0.18 19.74 M-0.18 -0.21 C-0.14 3.11, 0.04 16.63, 0.1 19.93" stroke="#1e1e1e" stroke-width="2" fill="none"></path></g></g><mask></mask><g stroke-linecap="round" transform="translate(747.0087186352944 38.93932884424214) rotate(269.5901407058406 4.029007851961524 4.364758506291764)"><path d="M4.22 0.14 C5.05 0.1, 6.27 0.5, 6.91 1.12 C7.56 1.74, 8 2.93, 8.07 3.88 C8.14 4.84, 7.79 6.09, 7.34 6.86 C6.88 7.62, 6.17 8.19, 5.35 8.45 C4.53 8.72, 3.27 8.8, 2.43 8.46 C1.58 8.12, 0.69 7.28, 0.3 6.43 C-0.09 5.58, -0.16 4.29, 0.08 3.37 C0.32 2.46, 1.04 1.52, 1.73 0.94 C2.42 0.36, 3.82 0.04, 4.23 -0.12 C4.63 -0.27, 4.12 -0.09, 4.14 0.01 M4.24 -0.16 C5.01 -0.26, 5.91 0.16, 6.54 0.83 C7.17 1.5, 7.88 2.93, 8.01 3.87 C8.13 4.8, 7.68 5.65, 7.27 6.44 C6.87 7.24, 6.35 8.35, 5.59 8.65 C4.83 8.95, 3.56 8.54, 2.72 8.22 C1.88 7.9, 1.02 7.52, 0.55 6.72 C0.09 5.93, -0.2 4.44, -0.05 3.46 C0.09 2.47, 0.75 1.39, 1.43 0.8 C2.11 0.21, 3.58 0.03, 4.03 -0.09 C4.49 -0.2, 4.15 0.03, 4.15 0.13" stroke="#1e1e1e" stroke-width="2" fill="none"></path></g><g transform="translate(762.675862029447 30.196302875799347) rotate(0.16677326979035026 29.839998245239258 12.5)"><text x="0" y="0" font-family="Virgil, Segoe UI Emoji" font-size="20px" fill="#1e1e1e" text-anchor="start" style="white-space: pre;" direction="ltr" dominant-baseline="text-before-edge">valore</text></g><g stroke-linecap="round"><g transform="translate(555.3443108831843 311.5825235324155) rotate(0 0.08098640467841278 9.787929591898944)"><path d="M0.12 -0.04 C0.15 3.26, 0.17 16.45, 0.15 19.77 M0 -0.19 C0.03 3.07, 0.01 16.22, 0.06 19.52" stroke="#1e1e1e" stroke-width="2" fill="none"></path></g></g><mask></mask><g stroke-linecap="round" transform="translate(551.4726888320879 331.7145040870437) rotate(0 4.029007851961524 4.364758506291764)"><path d="M3.77 -0.11 C4.58 -0.22, 5.86 0.34, 6.58 0.91 C7.31 1.47, 7.92 2.38, 8.11 3.28 C8.31 4.17, 8.17 5.44, 7.77 6.27 C7.37 7.1, 6.52 7.87, 5.71 8.26 C4.9 8.64, 3.76 8.81, 2.91 8.58 C2.07 8.35, 1.13 7.68, 0.64 6.87 C0.15 6.06, -0.14 4.69, -0.04 3.72 C0.06 2.74, 0.6 1.63, 1.22 1.02 C1.85 0.41, 3.28 0.24, 3.7 0.06 C4.12 -0.12, 3.72 -0.15, 3.77 -0.07 M3.99 0.03 C4.79 0.02, 6.03 0.64, 6.73 1.28 C7.44 1.91, 8.12 2.96, 8.21 3.85 C8.3 4.73, 7.72 5.8, 7.25 6.58 C6.79 7.36, 6.17 8.23, 5.41 8.53 C4.64 8.83, 3.51 8.69, 2.66 8.36 C1.82 8.04, 0.75 7.35, 0.33 6.58 C-0.08 5.81, -0.02 4.68, 0.17 3.75 C0.36 2.81, 0.83 1.61, 1.48 0.95 C2.13 0.3, 3.64 -0.01, 4.07 -0.19 C4.5 -0.37, 4.07 -0.29, 4.08 -0.15" stroke="#1e1e1e" stroke-width="2" fill="none"></path></g><g transform="translate(534.0136548069208 338.76526782797646) rotate(0 22.010000228881836 12.5)"><text x="0" y="0" font-family="Virgil, Segoe UI Emoji" font-size="20px" fill="#1e1e1e" text-anchor="start" style="white-space: pre;" direction="ltr" dominant-baseline="text-before-edge">nome</text></g><g stroke-linecap="round"><g transform="translate(689.4583649178153 312.04457208264034) rotate(0 0.1298195388952763 9.825360899136854)"><path d="M0.1 -0.05 C0.12 3.24, 0 16.53, 0 19.85 M-0.02 -0.2 C0.05 3.04, 0.27 16.34, 0.28 19.65" stroke="#1e1e1e" stroke-width="2" fill="none"></path></g></g><mask></mask><g stroke-linecap="round" transform="translate(685.5867428667189 332.1765526372685) rotate(0 4.029007851961524 4.364758506291764)"><path d="M3.59 -0.09 C4.41 -0.2, 5.77 0.28, 6.47 0.84 C7.17 1.4, 7.61 2.36, 7.8 3.27 C7.99 4.18, 7.97 5.44, 7.61 6.3 C7.25 7.17, 6.44 8.1, 5.64 8.46 C4.83 8.82, 3.58 8.71, 2.78 8.46 C1.97 8.2, 1.26 7.66, 0.81 6.92 C0.36 6.17, 0.03 4.95, 0.08 3.99 C0.13 3.04, 0.5 1.87, 1.1 1.2 C1.7 0.52, 3.2 0.11, 3.66 -0.05 C4.13 -0.21, 3.88 0.19, 3.91 0.25 M4.19 -0.23 C4.98 -0.31, 6.01 0.18, 6.63 0.82 C7.24 1.46, 7.74 2.66, 7.88 3.6 C8.02 4.54, 7.87 5.69, 7.46 6.47 C7.05 7.24, 6.21 7.93, 5.44 8.28 C4.66 8.63, 3.59 8.84, 2.8 8.54 C2.02 8.24, 1.21 7.34, 0.72 6.49 C0.24 5.64, -0.2 4.35, -0.11 3.46 C-0.03 2.57, 0.57 1.74, 1.24 1.16 C1.9 0.59, 3.42 0.17, 3.86 0.01 C4.31 -0.16, 3.87 0.13, 3.89 0.18" stroke="none" stroke-width="0" fill="#1e1e1e"></path><path d="M4.23 -0.08 C5.04 -0.12, 6.13 0.3, 6.77 0.93 C7.41 1.56, 7.95 2.74, 8.07 3.7 C8.19 4.67, 7.94 5.95, 7.48 6.73 C7.02 7.51, 6.11 8.11, 5.29 8.38 C4.46 8.64, 3.36 8.6, 2.54 8.3 C1.72 7.99, 0.8 7.37, 0.37 6.55 C-0.06 5.73, -0.24 4.3, -0.04 3.39 C0.16 2.47, 0.89 1.61, 1.59 1.07 C2.28 0.52, 3.7 0.29, 4.13 0.11 C4.56 -0.06, 4.16 -0.04, 4.16 0.02 M4.08 -0.02 C4.88 -0.03, 6.22 0.63, 6.89 1.27 C7.56 1.91, 8.06 2.89, 8.11 3.83 C8.15 4.77, 7.67 6.08, 7.19 6.9 C6.71 7.72, 6.04 8.53, 5.24 8.77 C4.43 9, 3.18 8.77, 2.37 8.33 C1.57 7.88, 0.76 6.96, 0.38 6.08 C0.01 5.21, -0.11 3.91, 0.11 3.06 C0.34 2.22, 1.06 1.49, 1.75 1 C2.43 0.52, 3.8 0.29, 4.2 0.16 C4.6 0.03, 4.11 0.19, 4.14 0.21" stroke="#1e1e1e" stroke-width="2" fill="none"></path></g><g transform="translate(682.5649869777476 339.89881768686155) rotate(0 7.880000114440918 12.5)"><text x="0" y="0" font-family="Virgil, Segoe UI Emoji" font-size="20px" fill="#1e1e1e" text-anchor="start" style="white-space: pre;" direction="ltr" dominant-baseline="text-before-edge">id</text></g><g stroke-linecap="round"><g transform="translate(737.0057001027967 47.88603476335953) rotate(269.5901407058406 0.09489690882298873 9.81891604891166)"><path d="M-0.11 -0.14 C-0.11 3.18, -0.02 16.44, 0.02 19.77 M0.1 0.11 C0.14 3.39, 0.32 16.28, 0.3 19.54" stroke="#1e1e1e" stroke-width="2" fill="none"></path></g></g><mask></mask><g stroke-linecap="round" transform="translate(747.5455988565186 53.1988785144668) rotate(269.5901407058406 4.029007851961524 4.364758506291764)"><path d="M4.09 -0.07 C4.89 -0.15, 5.95 0.26, 6.58 0.89 C7.2 1.52, 7.65 2.76, 7.84 3.71 C8.02 4.65, 8.1 5.8, 7.7 6.58 C7.3 7.36, 6.29 8.1, 5.44 8.4 C4.59 8.69, 3.39 8.67, 2.6 8.36 C1.81 8.05, 1.13 7.3, 0.7 6.53 C0.26 5.75, -0.12 4.65, -0.02 3.73 C0.09 2.8, 0.68 1.59, 1.34 0.98 C2 0.37, 3.5 0.2, 3.92 0.07 C4.35 -0.06, 3.88 0.15, 3.89 0.22 M4.03 -0.15 C4.9 -0.19, 6.26 0.45, 6.95 1.11 C7.64 1.76, 8.09 2.8, 8.16 3.76 C8.24 4.72, 7.93 6.08, 7.42 6.86 C6.9 7.63, 5.88 8.15, 5.08 8.39 C4.29 8.62, 3.46 8.66, 2.66 8.29 C1.86 7.92, 0.7 6.95, 0.27 6.17 C-0.15 5.4, -0.1 4.55, 0.11 3.64 C0.32 2.72, 0.88 1.31, 1.54 0.69 C2.2 0.06, 3.64 -0.02, 4.06 -0.13 C4.49 -0.24, 4.09 -0.05, 4.07 0.05" stroke="#1e1e1e" stroke-width="2" fill="none"></path></g><g transform="translate(763.2127641094976 44.44083314109167) rotate(0.16677326979035026 24.68000030517578 12.5)"><text x="0" y="0" font-family="Virgil, Segoe UI Emoji" font-size="20px" fill="#1e1e1e" text-anchor="start" style="white-space: pre;" direction="ltr" dominant-baseline="text-before-edge">data</text></g><g stroke-linecap="round"><g transform="translate(736.7614180985174 62.0281644171813) rotate(269.5901407058406 -0.07989917739712382 9.980182728250497)"><path d="M-0.02 0.11 C-0.01 3.38, 0.04 16.49, 0.05 19.74 M-0.2 0.04 C-0.22 3.32, -0.12 16.65, -0.1 19.92" stroke="#1e1e1e" stroke-width="2" fill="none"></path></g></g><mask></mask><g stroke-linecap="round" transform="translate(747.3013168522384 67.34100816828857) rotate(269.5901407058406 4.029007851961524 4.364758506291764)"><path d="M4 0.09 C4.83 -0.04, 5.81 0.31, 6.45 0.85 C7.1 1.38, 7.64 2.38, 7.85 3.29 C8.07 4.2, 8.13 5.44, 7.74 6.3 C7.35 7.16, 6.34 8.1, 5.51 8.46 C4.68 8.81, 3.59 8.73, 2.77 8.45 C1.94 8.18, 1.04 7.54, 0.56 6.79 C0.09 6.03, -0.21 4.86, -0.09 3.94 C0.03 3.01, 0.6 1.89, 1.27 1.23 C1.94 0.57, 3.49 0.18, 3.94 -0.03 C4.39 -0.24, 3.98 -0.11, 3.95 -0.01 M3.98 0.17 C4.74 0.09, 5.72 0.32, 6.42 0.87 C7.11 1.42, 7.99 2.56, 8.14 3.46 C8.3 4.36, 7.79 5.42, 7.34 6.29 C6.89 7.15, 6.24 8.32, 5.46 8.64 C4.68 8.97, 3.49 8.61, 2.66 8.24 C1.82 7.88, 0.89 7.21, 0.44 6.44 C-0.01 5.67, -0.18 4.5, -0.05 3.6 C0.09 2.7, 0.57 1.62, 1.24 1.06 C1.92 0.5, 3.55 0.39, 4 0.22 C4.46 0.05, 4 0.01, 3.99 0.04" stroke="#1e1e1e" stroke-width="2" fill="none"></path></g><g transform="translate(762.9683676852194 58.661581849420486) rotate(0.16677326979035026 51.69000244140625 12.5)"><text x="0" y="0" font-family="Virgil, Segoe UI Emoji" font-size="20px" fill="#1e1e1e" text-anchor="start" style="white-space: pre;" direction="ltr" dominant-baseline="text-before-edge">descrizione</text></g></svg>